# xmcd CD database file
#
# Track frame offsets:
#	150
#	21764
#	34910
#	51735
#	69778
#	92271
#	106818
#	130364
#	146622
#	167358
#	191363
#	209255
#	234606
#
# Disc length: 3375 seconds
#
# Revision: 3
# Processed by: cddbd v1.5.2PL0 Copyright (c) Steve Scherf et al.
# Submitted via: CDex 1.70beta2
#
DISCID=ab0d2d0d
DTITLE=Dr. John and the Lower 911 - City That Care Forgot
DYEAR=2008
DGENRE=Country
TTITLE0=Keep on Goin'
TTITLE1=Time for a Change
TTITLE2=Promises, Promises
TTITLE3=You Might Be Surprised
TTITLE4=Dream Warrior
TTITLE5=Black Gold
TTITLE6=We Gettin' There
TTITLE7=Stripped Away
TTITLE8=Say Whut?
TTITLE9=My People Need a Second Line
TTITLE10=Land Grab
TTITLE11=City That Care Forgot
TTITLE12=Save Our Wetlands
EXTD=YEAR: 2008
EXTT0=
EXTT1=
EXTT2=
EXTT3=
EXTT4=
EXTT5=
EXTT6=
EXTT7=
EXTT8=
EXTT9=
EXTT10=
EXTT11=
EXTT12=
PLAYORDER=
